<svg width="16" height="16" viewBox="0 0 16 16" fill="none" xmlns="http://www.w3.org/2000/svg">
  <!-- Background circle -->
  <circle cx="8" cy="8" r="7.5" fill="#667eea" stroke="#4f46e5" stroke-width="1"/>
  
  <!-- School (left) -->
  <g transform="translate(1.5, 5) scale(0.5)">
    <rect x="0" y="4" width="11" height="8" fill="#ffffff" rx="1"/>
    <polygon points="0,4 5.5,0 11,4" fill="#4f46e5"/>
    <rect x="2" y="6" width="2" height="2" fill="#667eea" rx="0.3"/>
    <rect x="7" y="6" width="2" height="2" fill="#667eea" rx="0.3"/>
    <rect x="4.5" y="8.5" width="2" height="3.5" fill="#4f46e5" rx="0.5"/>
  </g>
  
  <!-- Family (right) -->
  <g transform="translate(9, 5) scale(0.4)">
    <circle cx="3" cy="2.5" r="1.8" fill="#ffffff"/>
    <ellipse cx="3" cy="6.5" rx="2.2" ry="2.8" fill="#ffffff"/>
    <circle cx="7" cy="3.5" r="1.3" fill="#ffffff"/>
    <ellipse cx="7" cy="6.8" rx="1.5" ry="2.2" fill="#ffffff"/>
  </g>
  
  <!-- ELO (center) -->
  <g transform="translate(8, 8) scale(0.6)">
    <ellipse cx="-1" cy="0" rx="2" ry="1.5" fill="none" stroke="#fbbf24" stroke-width="2"/>
    <ellipse cx="1" cy="0" rx="2" ry="1.5" fill="none" stroke="#fbbf24" stroke-width="2"/>
  </g>
</svg>