<svg width="32" height="32" viewBox="0 0 32 32" fill="none" xmlns="http://www.w3.org/2000/svg">
  <!-- Background with gradient -->
  <defs>
    <linearGradient id="bgGradient" x1="0%" y1="0%" x2="100%" y2="100%">
      <stop offset="0%" style="stop-color:#667eea;stop-opacity:1" />
      <stop offset="100%" style="stop-color:#764ba2;stop-opacity:1" />
    </linearGradient>
    <linearGradient id="linkGradient" x1="0%" y1="0%" x2="100%" y2="0%">
      <stop offset="0%" style="stop-color:#fbbf24;stop-opacity:1" />
      <stop offset="100%" style="stop-color:#f59e0b;stop-opacity:1" />
    </linearGradient>
  </defs>
  
  <!-- Background circle -->
  <circle cx="16" cy="16" r="15" fill="url(#bgGradient)" stroke="#4f46e5" stroke-width="2"/>
  
  <!-- School building (left side) -->
  <g transform="translate(3, 10)">
    <!-- Building base -->
    <rect x="0" y="4" width="11" height="8" fill="#ffffff" rx="1"/>
    <!-- Roof -->
    <polygon points="0,4 5.5,0 11,4" fill="#4f46e5"/>
    <!-- Windows -->
    <rect x="2" y="6" width="2" height="2" fill="#667eea" rx="0.3"/>
    <rect x="7" y="6" width="2" height="2" fill="#667eea" rx="0.3"/>
    <rect x="2" y="9" width="2" height="2" fill="#667eea" rx="0.3"/>
    <rect x="7" y="9" width="2" height="2" fill="#667eea" rx="0.3"/>
    <!-- Door -->
    <rect x="4.5" y="8.5" width="2" height="3.5" fill="#4f46e5" rx="0.5"/>
  </g>
  
  <!-- Family group (right side) -->
  <g transform="translate(18, 10)">
    <!-- Parent -->
    <circle cx="3" cy="2.5" r="1.8" fill="#ffffff"/>
    <ellipse cx="3" cy="6.5" rx="2.2" ry="2.8" fill="#ffffff"/>
    <!-- Child 1 -->
    <circle cx="7" cy="3.5" r="1.3" fill="#ffffff"/>
    <ellipse cx="7" cy="6.8" rx="1.5" ry="2.2" fill="#ffffff"/>
    <!-- Child 2 -->
    <circle cx="10" cy="4.5" r="1" fill="#ffffff"/>
    <ellipse cx="10" cy="7.5" rx="1.2" ry="1.8" fill="#ffffff"/>
  </g>
  
  <!-- ELO Connection (interlocked rings) -->
  <g transform="translate(16, 16)">
    <!-- First ring -->
    <ellipse cx="-1.5" cy="0" rx="2.5" ry="1.8" fill="none" stroke="url(#linkGradient)" stroke-width="2.5" opacity="0.9"/>
    <!-- Second ring (interlocked) -->
    <ellipse cx="1.5" cy="0" rx="2.5" ry="1.8" fill="none" stroke="url(#linkGradient)" stroke-width="2.5" opacity="0.9"/>
  </g>
  
  <!-- Small decorative elements -->
  <circle cx="8" cy="7" r="0.8" fill="#fbbf24" opacity="0.7"/>
  <circle cx="24" cy="7" r="0.8" fill="#fbbf24" opacity="0.7"/>
</svg>